<svg xmlns="http://www.w3.org/2000/svg" version="1.1" xmlns:xlink="http://www.w3.org/1999/xlink" xmlns:svgjs="http://svgjs.dev/svgjs" width="500" height="500"><svg viewBox="-0.169 96.047 470.623 404.329" width="500" height="500" xmlns="http://www.w3.org/2000/svg">
  <defs></defs>
  <path style="stroke: rgb(0, 0, 0); stroke-miterlimit: 1; fill: none; stroke-linecap: round; stroke-width: 18px; transform-origin: 269.241px 296.115px;" d="M 316.251 333.317 C 264.925 445.654 111.236 460.306 39.612 359.685 C -32.014 259.068 32.144 118.645 155.095 106.923 C 223.047 100.447 287.656 137.672 316.133 199.71"></path>
  <path style="stroke: rgb(0, 0, 0); stroke-miterlimit: 1; fill: none; stroke-linecap: round; stroke-width: 18px; transform-origin: 243.155px 268.019px;" d="M 243.101 195.495 C 299.579 195.495 334.881 255.932 306.639 304.281 C 278.399 352.631 207.8 352.631 179.557 304.281 C 163.951 277.558 167.156 244 187.551 220.641" transform="matrix(0.00003, 1, -1, 0.00003, -0.000002, -0.00001)"></path>
  <path style="stroke: rgb(0, 0, 0); stroke-miterlimit: 1; fill: none; stroke-linecap: round; stroke-width: 18px; transform-origin: 389.055px 266.363px;" d="M 315.683 268.118 C 315.681 242.626 327.992 221.446 345.951 208.475 C 367.774 192.715 397.936 189.082 424.464 204.573 C 472.815 232.807 472.819 303.408 424.472 331.653 C 397.75 347.262 364.193 344.059 340.831 323.667"></path>
  <line style="stroke: rgb(0, 0, 0); fill: none; stroke-linecap: round; stroke-width: 18px;" x1="316.896" y1="334.01" x2="386.275" y2="424.485"></line>
  <line style="fill: rgb(216, 216, 216); stroke: rgb(0, 0, 0); stroke-linecap: round; stroke-width: 18px;" x1="247.092" y1="452.465" x2="246.338" y2="490.893"></line>
  <line style="fill: rgb(216, 216, 216); stroke: rgb(0, 0, 0); stroke-linecap: round; stroke-width: 18px;" x1="292.878" y1="452.462" x2="292.126" y2="490.892"></line>
  <line style="fill: rgb(216, 216, 216); stroke: rgb(0, 0, 0); stroke-linecap: round; stroke-width: 18px;" x1="338.548" y1="452.467" x2="337.795" y2="490.893"></line>
  <line style="fill: rgb(216, 216, 216); stroke: rgb(0, 0, 0); stroke-linecap: round; stroke-width: 18px;" x1="384.449" y1="452.579" x2="383.697" y2="491.008"></line>
  <line style="fill: rgb(216, 216, 216); stroke: rgb(0, 0, 0); stroke-linecap: round; stroke-width: 18px; transform-origin: 350.511px 424.318px;" x1="351.042" y1="388.545" x2="349.98" y2="460.091" transform="matrix(0, 1, -1, 0, 0.000021, -0.000001)"></line>
</svg><style>@media (prefers-color-scheme: light) { :root { filter: none; } }
@media (prefers-color-scheme: dark) { :root { filter: invert(100%); } }
</style></svg>